<mxfile host="app.diagrams.net" modified="2021-04-22T07:02:50.432Z" agent="5.0 (Macintosh; Intel Mac OS X 10_15_7) AppleWebKit/537.36 (KHTML, like Gecko) Chrome/86.0.4240.193 Safari/537.36" etag="b6yHGzetvidyI1PKPs6k" version="14.6.3" type="github">
  <diagram id="NQNQL-IsYVZrM8-REyhW" name="Page-1">
    <mxGraphModel dx="1773" dy="536" grid="1" gridSize="10" guides="1" tooltips="1" connect="1" arrows="1" fold="1" page="1" pageScale="1" pageWidth="827" pageHeight="1169" math="0" shadow="0">
      <root>
        <mxCell id="0" />
        <mxCell id="1" parent="0" />
        <mxCell id="EfNjIKd8hFoJNDSCU2aa-24" style="edgeStyle=orthogonalEdgeStyle;rounded=0;orthogonalLoop=1;jettySize=auto;html=1;exitX=1;exitY=0.5;exitDx=0;exitDy=0;entryX=0;entryY=0.5;entryDx=0;entryDy=0;" edge="1" parent="1" source="EfNjIKd8hFoJNDSCU2aa-6" target="EfNjIKd8hFoJNDSCU2aa-8">
          <mxGeometry relative="1" as="geometry" />
        </mxCell>
        <mxCell id="EfNjIKd8hFoJNDSCU2aa-6" value="Producer" style="rounded=1;whiteSpace=wrap;html=1;fillColor=#ffe6cc;strokeColor=#d79b00;" vertex="1" parent="1">
          <mxGeometry x="-50" y="170" width="120" height="60" as="geometry" />
        </mxCell>
        <mxCell id="EfNjIKd8hFoJNDSCU2aa-7" value="" style="shape=table;html=1;whiteSpace=wrap;startSize=0;container=1;collapsible=0;childLayout=tableLayout;fillColor=#dae8fc;strokeColor=#6c8ebf;" vertex="1" parent="1">
          <mxGeometry x="470" y="100" width="60" height="200" as="geometry" />
        </mxCell>
        <mxCell id="EfNjIKd8hFoJNDSCU2aa-22" style="shape=partialRectangle;html=1;whiteSpace=wrap;collapsible=0;dropTarget=0;pointerEvents=0;fillColor=none;top=0;left=0;bottom=0;right=0;points=[[0,0.5],[1,0.5]];portConstraint=eastwest;" vertex="1" parent="EfNjIKd8hFoJNDSCU2aa-7">
          <mxGeometry width="60" height="40" as="geometry" />
        </mxCell>
        <mxCell id="EfNjIKd8hFoJNDSCU2aa-23" style="shape=partialRectangle;html=1;whiteSpace=wrap;connectable=0;fillColor=none;top=0;left=0;bottom=0;right=0;overflow=hidden;" vertex="1" parent="EfNjIKd8hFoJNDSCU2aa-22">
          <mxGeometry width="60" height="40" as="geometry" />
        </mxCell>
        <mxCell id="EfNjIKd8hFoJNDSCU2aa-20" style="shape=partialRectangle;html=1;whiteSpace=wrap;collapsible=0;dropTarget=0;pointerEvents=0;fillColor=none;top=0;left=0;bottom=0;right=0;points=[[0,0.5],[1,0.5]];portConstraint=eastwest;" vertex="1" parent="EfNjIKd8hFoJNDSCU2aa-7">
          <mxGeometry y="40" width="60" height="40" as="geometry" />
        </mxCell>
        <mxCell id="EfNjIKd8hFoJNDSCU2aa-21" style="shape=partialRectangle;html=1;whiteSpace=wrap;connectable=0;fillColor=none;top=0;left=0;bottom=0;right=0;overflow=hidden;" vertex="1" parent="EfNjIKd8hFoJNDSCU2aa-20">
          <mxGeometry width="60" height="40" as="geometry" />
        </mxCell>
        <mxCell id="EfNjIKd8hFoJNDSCU2aa-8" value="" style="shape=partialRectangle;html=1;whiteSpace=wrap;collapsible=0;dropTarget=0;pointerEvents=0;fillColor=none;top=0;left=0;bottom=0;right=0;points=[[0,0.5],[1,0.5]];portConstraint=eastwest;" vertex="1" parent="EfNjIKd8hFoJNDSCU2aa-7">
          <mxGeometry y="80" width="60" height="40" as="geometry" />
        </mxCell>
        <mxCell id="EfNjIKd8hFoJNDSCU2aa-9" value="" style="shape=partialRectangle;html=1;whiteSpace=wrap;connectable=0;fillColor=none;top=0;left=0;bottom=0;right=0;overflow=hidden;" vertex="1" parent="EfNjIKd8hFoJNDSCU2aa-8">
          <mxGeometry width="60" height="40" as="geometry" />
        </mxCell>
        <mxCell id="EfNjIKd8hFoJNDSCU2aa-12" value="" style="shape=partialRectangle;html=1;whiteSpace=wrap;collapsible=0;dropTarget=0;pointerEvents=0;fillColor=none;top=0;left=0;bottom=0;right=0;points=[[0,0.5],[1,0.5]];portConstraint=eastwest;" vertex="1" parent="EfNjIKd8hFoJNDSCU2aa-7">
          <mxGeometry y="120" width="60" height="40" as="geometry" />
        </mxCell>
        <mxCell id="EfNjIKd8hFoJNDSCU2aa-13" value="" style="shape=partialRectangle;html=1;whiteSpace=wrap;connectable=0;fillColor=none;top=0;left=0;bottom=0;right=0;overflow=hidden;" vertex="1" parent="EfNjIKd8hFoJNDSCU2aa-12">
          <mxGeometry width="60" height="40" as="geometry" />
        </mxCell>
        <mxCell id="EfNjIKd8hFoJNDSCU2aa-16" value="" style="shape=partialRectangle;html=1;whiteSpace=wrap;collapsible=0;dropTarget=0;pointerEvents=0;fillColor=none;top=0;left=0;bottom=0;right=0;points=[[0,0.5],[1,0.5]];portConstraint=eastwest;" vertex="1" parent="EfNjIKd8hFoJNDSCU2aa-7">
          <mxGeometry y="160" width="60" height="40" as="geometry" />
        </mxCell>
        <mxCell id="EfNjIKd8hFoJNDSCU2aa-17" value="" style="shape=partialRectangle;html=1;whiteSpace=wrap;connectable=0;fillColor=none;top=0;left=0;bottom=0;right=0;overflow=hidden;" vertex="1" parent="EfNjIKd8hFoJNDSCU2aa-16">
          <mxGeometry width="60" height="40" as="geometry" />
        </mxCell>
        <mxCell id="EfNjIKd8hFoJNDSCU2aa-25" value="&lt;div&gt;发送延时任务&lt;/div&gt;&lt;div&gt;1. 替换topic为SCHEDULE_TOPIC_XXXX，queueId为消息延迟等级&lt;/div&gt;&lt;div&gt;2. 将消息原来的topic，queueId放到消息扩展属性中&amp;nbsp; &amp;nbsp; &amp;nbsp; &amp;nbsp; &amp;nbsp; &amp;nbsp; &amp;nbsp; &amp;nbsp; &amp;nbsp; &amp;nbsp; &amp;nbsp; &amp;nbsp; &amp;nbsp; &amp;nbsp;&lt;/div&gt;&lt;div&gt;3. 将消息应该执行的时间放到tagsCode中&amp;nbsp; &amp;nbsp; &amp;nbsp; &amp;nbsp; &amp;nbsp; &amp;nbsp; &amp;nbsp; &amp;nbsp; &amp;nbsp; &amp;nbsp; &amp;nbsp; &amp;nbsp; &amp;nbsp; &amp;nbsp; &amp;nbsp; &amp;nbsp; &amp;nbsp; &amp;nbsp; &amp;nbsp; &amp;nbsp; &amp;nbsp; &amp;nbsp;&lt;/div&gt;" style="text;html=1;strokeColor=none;fillColor=none;align=center;verticalAlign=middle;whiteSpace=wrap;rounded=0;" vertex="1" parent="1">
          <mxGeometry x="80" y="150" width="380" height="10" as="geometry" />
        </mxCell>
        <mxCell id="EfNjIKd8hFoJNDSCU2aa-26" value="CommitLog" style="text;html=1;strokeColor=none;fillColor=none;align=center;verticalAlign=middle;whiteSpace=wrap;rounded=0;" vertex="1" parent="1">
          <mxGeometry x="480" y="60" width="40" height="20" as="geometry" />
        </mxCell>
        <mxCell id="EfNjIKd8hFoJNDSCU2aa-28" value="" style="shape=table;html=1;whiteSpace=wrap;startSize=0;container=1;collapsible=0;childLayout=tableLayout;fillColor=#d5e8d4;strokeColor=#82b366;" vertex="1" parent="1">
          <mxGeometry x="630" y="100" width="180" height="40" as="geometry" />
        </mxCell>
        <mxCell id="EfNjIKd8hFoJNDSCU2aa-29" value="" style="shape=partialRectangle;html=1;whiteSpace=wrap;collapsible=0;dropTarget=0;pointerEvents=0;fillColor=none;top=0;left=0;bottom=0;right=0;points=[[0,0.5],[1,0.5]];portConstraint=eastwest;" vertex="1" parent="EfNjIKd8hFoJNDSCU2aa-28">
          <mxGeometry width="180" height="40" as="geometry" />
        </mxCell>
        <mxCell id="EfNjIKd8hFoJNDSCU2aa-30" value="" style="shape=partialRectangle;html=1;whiteSpace=wrap;connectable=0;fillColor=none;top=0;left=0;bottom=0;right=0;overflow=hidden;" vertex="1" parent="EfNjIKd8hFoJNDSCU2aa-29">
          <mxGeometry width="60" height="40" as="geometry" />
        </mxCell>
        <mxCell id="EfNjIKd8hFoJNDSCU2aa-31" value="" style="shape=partialRectangle;html=1;whiteSpace=wrap;connectable=0;fillColor=none;top=0;left=0;bottom=0;right=0;overflow=hidden;" vertex="1" parent="EfNjIKd8hFoJNDSCU2aa-29">
          <mxGeometry x="60" width="60" height="40" as="geometry" />
        </mxCell>
        <mxCell id="EfNjIKd8hFoJNDSCU2aa-32" value="" style="shape=partialRectangle;html=1;whiteSpace=wrap;connectable=0;fillColor=none;top=0;left=0;bottom=0;right=0;overflow=hidden;" vertex="1" parent="EfNjIKd8hFoJNDSCU2aa-29">
          <mxGeometry x="120" width="60" height="40" as="geometry" />
        </mxCell>
        <mxCell id="EfNjIKd8hFoJNDSCU2aa-41" value="" style="shape=table;html=1;whiteSpace=wrap;startSize=0;container=1;collapsible=0;childLayout=tableLayout;fillColor=#d5e8d4;strokeColor=#82b366;" vertex="1" parent="1">
          <mxGeometry x="630" y="180" width="180" height="40" as="geometry" />
        </mxCell>
        <mxCell id="EfNjIKd8hFoJNDSCU2aa-42" value="" style="shape=partialRectangle;html=1;whiteSpace=wrap;collapsible=0;dropTarget=0;pointerEvents=0;fillColor=none;top=0;left=0;bottom=0;right=0;points=[[0,0.5],[1,0.5]];portConstraint=eastwest;" vertex="1" parent="EfNjIKd8hFoJNDSCU2aa-41">
          <mxGeometry width="180" height="40" as="geometry" />
        </mxCell>
        <mxCell id="EfNjIKd8hFoJNDSCU2aa-43" value="" style="shape=partialRectangle;html=1;whiteSpace=wrap;connectable=0;fillColor=none;top=0;left=0;bottom=0;right=0;overflow=hidden;" vertex="1" parent="EfNjIKd8hFoJNDSCU2aa-42">
          <mxGeometry width="60" height="40" as="geometry" />
        </mxCell>
        <mxCell id="EfNjIKd8hFoJNDSCU2aa-44" value="" style="shape=partialRectangle;html=1;whiteSpace=wrap;connectable=0;fillColor=none;top=0;left=0;bottom=0;right=0;overflow=hidden;" vertex="1" parent="EfNjIKd8hFoJNDSCU2aa-42">
          <mxGeometry x="60" width="60" height="40" as="geometry" />
        </mxCell>
        <mxCell id="EfNjIKd8hFoJNDSCU2aa-45" value="" style="shape=partialRectangle;html=1;whiteSpace=wrap;connectable=0;fillColor=none;top=0;left=0;bottom=0;right=0;overflow=hidden;" vertex="1" parent="EfNjIKd8hFoJNDSCU2aa-42">
          <mxGeometry x="120" width="60" height="40" as="geometry" />
        </mxCell>
        <mxCell id="EfNjIKd8hFoJNDSCU2aa-46" value="ConsumerQueue&lt;br&gt;一个延迟级别一个队列" style="text;html=1;strokeColor=none;fillColor=none;align=center;verticalAlign=middle;whiteSpace=wrap;rounded=0;" vertex="1" parent="1">
          <mxGeometry x="610" y="30" width="220" height="20" as="geometry" />
        </mxCell>
        <mxCell id="EfNjIKd8hFoJNDSCU2aa-47" value="delay 1" style="text;html=1;strokeColor=none;fillColor=none;align=center;verticalAlign=middle;whiteSpace=wrap;rounded=0;" vertex="1" parent="1">
          <mxGeometry x="860" y="110" width="80" height="20" as="geometry" />
        </mxCell>
        <mxCell id="EfNjIKd8hFoJNDSCU2aa-48" value="delay 18" style="text;html=1;strokeColor=none;fillColor=none;align=center;verticalAlign=middle;whiteSpace=wrap;rounded=0;" vertex="1" parent="1">
          <mxGeometry x="860" y="190" width="80" height="20" as="geometry" />
        </mxCell>
        <mxCell id="EfNjIKd8hFoJNDSCU2aa-52" style="edgeStyle=orthogonalEdgeStyle;rounded=0;orthogonalLoop=1;jettySize=auto;html=1;exitX=1;exitY=0.5;exitDx=0;exitDy=0;entryX=0.828;entryY=-0.025;entryDx=0;entryDy=0;entryPerimeter=0;" edge="1" parent="1" source="EfNjIKd8hFoJNDSCU2aa-22" target="EfNjIKd8hFoJNDSCU2aa-29">
          <mxGeometry relative="1" as="geometry" />
        </mxCell>
        <mxCell id="EfNjIKd8hFoJNDSCU2aa-53" style="edgeStyle=orthogonalEdgeStyle;rounded=0;orthogonalLoop=1;jettySize=auto;html=1;exitX=1;exitY=0.5;exitDx=0;exitDy=0;entryX=0.828;entryY=0;entryDx=0;entryDy=0;entryPerimeter=0;" edge="1" parent="1" source="EfNjIKd8hFoJNDSCU2aa-20" target="EfNjIKd8hFoJNDSCU2aa-42">
          <mxGeometry relative="1" as="geometry" />
        </mxCell>
        <mxCell id="EfNjIKd8hFoJNDSCU2aa-58" style="edgeStyle=orthogonalEdgeStyle;rounded=0;orthogonalLoop=1;jettySize=auto;html=1;exitX=0.5;exitY=0;exitDx=0;exitDy=0;" edge="1" parent="1">
          <mxGeometry relative="1" as="geometry">
            <mxPoint x="720" y="219" as="targetPoint" />
            <mxPoint x="720" y="289" as="sourcePoint" />
          </mxGeometry>
        </mxCell>
        <mxCell id="EfNjIKd8hFoJNDSCU2aa-60" style="edgeStyle=orthogonalEdgeStyle;rounded=0;orthogonalLoop=1;jettySize=auto;html=1;exitX=0;exitY=0.5;exitDx=0;exitDy=0;entryX=0.45;entryY=1.025;entryDx=0;entryDy=0;entryPerimeter=0;" edge="1" parent="1">
          <mxGeometry relative="1" as="geometry">
            <mxPoint x="697" y="330" as="sourcePoint" />
            <mxPoint x="514" y="301" as="targetPoint" />
          </mxGeometry>
        </mxCell>
        <mxCell id="EfNjIKd8hFoJNDSCU2aa-65" style="edgeStyle=orthogonalEdgeStyle;rounded=0;orthogonalLoop=1;jettySize=auto;html=1;exitX=0.5;exitY=1;exitDx=0;exitDy=0;entryX=0.5;entryY=0;entryDx=0;entryDy=0;" edge="1" parent="1" source="EfNjIKd8hFoJNDSCU2aa-54" target="EfNjIKd8hFoJNDSCU2aa-64">
          <mxGeometry relative="1" as="geometry" />
        </mxCell>
        <mxCell id="EfNjIKd8hFoJNDSCU2aa-54" value="定时任务" style="ellipse;whiteSpace=wrap;html=1;aspect=fixed;fillColor=#e1d5e7;strokeColor=#9673a6;" vertex="1" parent="1">
          <mxGeometry x="680" y="290" width="80" height="80" as="geometry" />
        </mxCell>
        <mxCell id="EfNjIKd8hFoJNDSCU2aa-67" style="edgeStyle=orthogonalEdgeStyle;rounded=0;orthogonalLoop=1;jettySize=auto;html=1;exitX=1;exitY=0.5;exitDx=0;exitDy=0;entryX=1;entryY=0.5;entryDx=0;entryDy=0;" edge="1" parent="1" source="EfNjIKd8hFoJNDSCU2aa-64" target="EfNjIKd8hFoJNDSCU2aa-54">
          <mxGeometry relative="1" as="geometry" />
        </mxCell>
        <mxCell id="EfNjIKd8hFoJNDSCU2aa-70" style="edgeStyle=orthogonalEdgeStyle;rounded=0;orthogonalLoop=1;jettySize=auto;html=1;exitX=0;exitY=0.5;exitDx=0;exitDy=0;entryX=0.167;entryY=1.025;entryDx=0;entryDy=0;entryPerimeter=0;" edge="1" parent="1">
          <mxGeometry relative="1" as="geometry">
            <mxPoint x="686" y="470" as="sourcePoint" />
            <mxPoint x="486.02" y="301" as="targetPoint" />
          </mxGeometry>
        </mxCell>
        <mxCell id="EfNjIKd8hFoJNDSCU2aa-64" value="消息是否到达执行时间" style="rhombus;whiteSpace=wrap;html=1;fillColor=#f8cecc;strokeColor=#b85450;" vertex="1" parent="1">
          <mxGeometry x="680" y="430" width="80" height="80" as="geometry" />
        </mxCell>
        <mxCell id="EfNjIKd8hFoJNDSCU2aa-68" value="未到达，等待下次执行" style="text;html=1;strokeColor=none;fillColor=none;align=center;verticalAlign=middle;whiteSpace=wrap;rounded=0;" vertex="1" parent="1">
          <mxGeometry x="790" y="390" width="150" height="30" as="geometry" />
        </mxCell>
        <mxCell id="EfNjIKd8hFoJNDSCU2aa-71" value="拉取消息偏移量" style="text;html=1;strokeColor=none;fillColor=none;align=center;verticalAlign=middle;whiteSpace=wrap;rounded=0;" vertex="1" parent="1">
          <mxGeometry x="730" y="250" width="120" height="20" as="geometry" />
        </mxCell>
        <mxCell id="EfNjIKd8hFoJNDSCU2aa-72" value="拉取消息内容" style="text;html=1;strokeColor=none;fillColor=none;align=center;verticalAlign=middle;whiteSpace=wrap;rounded=0;" vertex="1" parent="1">
          <mxGeometry x="550" y="290" width="120" height="20" as="geometry" />
        </mxCell>
        <mxCell id="EfNjIKd8hFoJNDSCU2aa-73" value="&lt;div&gt;已到达，重新设置消息topic，queueId为原来的&lt;/div&gt;&lt;div&gt;（原来的topic，queueId在消息扩展属性中）&lt;/div&gt;" style="text;html=1;strokeColor=none;fillColor=none;align=center;verticalAlign=middle;whiteSpace=wrap;rounded=0;" vertex="1" parent="1">
          <mxGeometry x="420" y="490" width="280" height="40" as="geometry" />
        </mxCell>
      </root>
    </mxGraphModel>
  </diagram>
</mxfile>
